HIERARCHY
ROOT SpineBase
{
  OFFSET 0.000000 0.000000 0.000000
  CHANNELS 6 Xposition Yposition Zposition Zrotation Xrotation Yrotation
  JOINT SpineMid
  {
    OFFSET 0.000000 30.433926 0.000000
    CHANNELS 3 Zrotation Xrotation Yrotation
    JOINT SpineShoulder
    {
      OFFSET -0.234535 22.774359 -0.449699
      CHANNELS 3 Zrotation Xrotation Yrotation
      JOINT Neck
      {
        OFFSET -0.055256 7.564952 -0.435348
        CHANNELS 3 Zrotation Xrotation Yrotation
        JOINT Head
        {
          OFFSET -5.335572 12.893902 4.382482
          CHANNELS 3 Zrotation Xrotation Yrotation
          End Site
          {
            OFFSET 0 0 0
          }
        }
      }
      JOINT ShoulderLeft
      {
        OFFSET -14.809656 -4.353060 5.328932
        CHANNELS 3 Zrotation Xrotation Yrotation
        JOINT ElbowLeft
        {
          OFFSET -5.418902 -27.330911 9.370303
          CHANNELS 3 Zrotation Xrotation Yrotation
          JOINT WristLeft
          {
            OFFSET -5.068313 -21.021039 3.140222
            CHANNELS 3 Zrotation Xrotation Yrotation
            JOINT HandLeft
            {
              OFFSET -1.899474 -5.268851 1.370197
              CHANNELS 3 Zrotation Xrotation Yrotation
              JOINT HandTipLeft
              {
                OFFSET 0.579460 -4.279197 -0.595385
                CHANNELS 3 Zrotation Xrotation Yrotation
                End Site
                {
                  OFFSET 0 0 0
                }
              }
              JOINT ThumbLeft
              {
                OFFSET 2.583561 -0.145485 2.575131
                CHANNELS 3 Zrotation Xrotation Yrotation
                End Site
                {
                  OFFSET 0 0 0
                }
              }
            }
          }
        }
      }
      JOINT ShoulderRight
      {
        OFFSET 9.501251 -1.813612 -12.248013
        CHANNELS 3 Zrotation Xrotation Yrotation
        JOINT ElbowRight
        {
          OFFSET 3.844849 -24.241682 -8.063509
          CHANNELS 3 Zrotation Xrotation Yrotation
          JOINT WristRight
          {
            OFFSET -10.144572 -17.226812 -11.522446
            CHANNELS 3 Zrotation Xrotation Yrotation
            JOINT HandRight
            {
              OFFSET -3.175860 -2.562903 -2.496859
              CHANNELS 3 Zrotation Xrotation Yrotation
              JOINT HandTipRight
              {
                OFFSET -3.009367 -4.248413 -2.194193
                CHANNELS 3 Zrotation Xrotation Yrotation
                End Site
                {
                  OFFSET 0 0 0
                }
              }
              JOINT ThumbRight
              {
                OFFSET 2.655323 -1.996560 -1.003150
                CHANNELS 3 Zrotation Xrotation Yrotation
                End Site
                {
                  OFFSET 0 0 0
                }
              }
            }
          }
        }
      }
    }
  }
  JOINT HipLeft
  {
    OFFSET -5.751672 0.602190 -0.315432
    CHANNELS 3 Zrotation Xrotation Yrotation
    JOINT KneeLeft
    {
      OFFSET 1.323375 -29.515647 -0.113711
      CHANNELS 3 Zrotation Xrotation Yrotation
      JOINT AnkleLeft
      {
        OFFSET 3.887789 -30.118351 -0.195195
        CHANNELS 3 Zrotation Xrotation Yrotation
        JOINT FootLeft
        {
          OFFSET -5.160754 -3.042357 -11.707573
          CHANNELS 3 Zrotation Xrotation Yrotation
          End Site
          {
            OFFSET 0 0 0
          }
        }
      }
    }
  }
  JOINT HipRight
  {
    OFFSET 6.457973 2.042847 -6.403780
    CHANNELS 3 Zrotation Xrotation Yrotation
    JOINT KneeRight
    {
      OFFSET 6.323704 -24.880007 4.538050
      CHANNELS 3 Zrotation Xrotation Yrotation
      JOINT AnkleRight
      {
        OFFSET -2.644162 -31.735149 23.458991
        CHANNELS 3 Zrotation Xrotation Yrotation
        JOINT FootRight
        {
          OFFSET -6.141607 -2.927961 -15.996856
          CHANNELS 3 Zrotation Xrotation Yrotation
          End Site
          {
            OFFSET 0 0 0
          }
        }
      }
    }
  }
}
MOTION
Frames: 12
Frame Time: 0.033333
-36.929271 68.055566 331.631491 -0.000000 0.000000 26.503174 -0.000000 0.000000 -26.503174 -0.000000 0.000000 0.000000 -0.000000 0.000000 0.000000 0.000000 0.000000 0.000000 -0.000000 0.000000 0.000000 -0.000000 0.000000 0.000000 -0.000000 0.000000 0.000000 -0.000000 0.000000 0.000000 0.000000 0.000000 0.000000 0.000000 0.000000 0.000000 -0.000000 0.000000 0.000000 -0.000000 0.000000 0.000000 -0.000000 0.000000 0.000000 -0.000000 0.000000 0.000000 0.000000 0.000000 0.000000 0.000000 0.000000 0.000000 -0.000000 0.000000 -26.503174 -0.000000 0.000000 0.000000 -0.000000 0.000000 0.000000 0.000000 0.000000 0.000000 -0.000000 0.000000 -26.503174 -0.000000 0.000000 0.000000 -0.000000 0.000000 0.000000 0.000000 0.000000 0.000000
-37.133027 68.159708 331.588424 0.537614 0.048680 25.497689 -0.506209 0.187489 -25.497089 -0.000000 0.000000 0.000000 -0.563217 0.486782 0.395491 0.000000 0.000000 0.000000 0.740328 -0.822213 0.421659 2.061086 0.176970 0.137603 -1.362068 -2.272379 0.891281 -2.119870 -6.003554 -2.570907 0.000000 0.000000 0.000000 0.000000 0.000000 0.000000 0.834829 0.602491 -0.185984 -0.747769 1.877002 -1.326443 0.416710 1.924417 -4.302966 -2.706897 -1.852476 4.881169 0.000000 0.000000 0.000000 0.000000 0.000000 0.000000 -0.506209 0.187489 -25.497089 -0.000000 0.000000 0.000000 -0.000000 0.000000 0.000000 0.000000 0.000000 0.000000 0.891724 3.984912 -24.585117 1.415787 -4.289230 -0.032809 1.491588 -6.433499 -1.822924 0.000000 0.000000 0.000000
-37.386762 68.231548 331.497848 0.948373 0.112667 24.627809 -0.909059 0.292787 -24.626419 -0.000000 0.000000 0.000000 -1.097108 0.579850 0.619788 0.000000 0.000000 0.000000 1.409173 -0.998595 0.693042 3.433986 0.874075 0.001331 -2.158679 -5.539091 2.122107 -4.265958 -8.335563 -4.457716 0.000000 0.000000 0.000000 0.000000 0.000000 0.000000 1.762442 0.887281 -0.456911 -1.167190 3.245263 -2.377540 0.819735 2.346134 -6.342121 -4.779842 -2.236067 7.146263 0.000000 0.000000 0.000000 0.000000 0.000000 0.000000 -0.909059 0.292787 -24.626419 0.204870 -1.140117 -0.146440 0.333168 0.477480 -0.836369 0.000000 0.000000 0.000000 1.521535 7.405754 -23.003395 2.740708 -7.257962 0.121645 2.939559 -14.177771 -3.257462 0.000000 0.000000 0.000000
-37.690477 68.271086 331.359765 1.231495 0.191968 23.898566 -0.471190 -0.166969 -23.882648 -0.020758 -0.130274 0.032119 -2.448771 0.568037 0.632609 0.000000 0.000000 0.000000 1.170221 -0.274318 0.758751 4.255623 2.050513 -0.372064 -2.639138 -9.661817 3.572421 -5.960162 -7.940951 -5.662902 0.000000 0.000000 0.000000 0.000000 0.000000 0.000000 1.925825 1.098111 -0.865613 -1.282644 4.139307 -3.156659 1.039336 2.140258 -7.139683 -5.976798 -1.852257 8.006817 0.000000 0.000000 0.000000 0.000000 0.000000 0.000000 -0.254464 -0.331350 -23.911124 -0.646329 -1.207185 -0.166226 0.545510 0.197738 -1.830634 0.000000 0.000000 0.000000 1.944988 10.173850 -21.731633 4.026768 -8.784273 0.425408 4.122762 -22.368369 -4.153940 0.000000 0.000000 0.000000
-38.044171 68.278322 331.174172 1.386419 0.286575 23.311762 -0.576711 -0.232420 -23.295014 -0.015315 -0.166576 0.035604 -3.013115 -0.074253 0.502536 0.000000 0.000000 0.000000 1.647986 0.830623 0.713588 4.606483 3.739007 -0.981240 -3.118647 -14.559890 5.058359 -6.805959 -5.578163 -6.167782 0.000000 0.000000 0.000000 0.000000 0.000000 0.000000 2.915353 0.686164 -1.296885 -1.097026 4.588120 -3.665853 1.084634 1.684222 -7.166184 -6.174185 -1.052731 7.986603 0.000000 0.000000 0.000000 0.000000 0.000000 0.000000 -0.014755 -0.884990 -23.335074 -0.838440 -0.985109 -0.159382 0.796416 -0.446295 -3.240462 0.000000 0.000000 0.000000 2.217022 12.244629 -20.747519 5.302093 -8.753563 0.827640 4.787529 -29.945975 -4.488110 0.000000 0.000000 0.000000
-38.447846 68.253255 330.941072 1.412764 0.396466 22.866505 -0.657247 -0.299533 -22.851406 -0.003580 -0.199276 0.035254 -3.458283 -1.133334 0.191807 0.000000 0.000000 0.000000 2.195506 2.559566 0.506062 4.524516 6.027363 -1.855249 -4.260694 -20.114166 6.080970 -6.196204 -1.908469 -5.873910 0.000000 0.000000 0.000000 0.000000 0.000000 0.000000 4.046989 -0.148965 -1.775643 -0.592392 4.606744 -3.905896 1.028899 1.111929 -6.617556 -5.379928 -0.014548 7.264356 0.000000 0.000000 0.000000 0.000000 0.000000 0.000000 0.388852 -1.648461 -22.898293 -1.015693 -0.460925 -0.126556 1.081658 -1.470318 -5.077547 0.000000 0.000000 0.000000 2.386527 13.607243 -20.033294 6.574695 -7.048694 1.260668 4.633428 -36.024419 -4.417316 0.000000 0.000000 0.000000
-39.047545 68.167224 330.655874 1.186501 0.440108 22.206107 -1.264820 0.041020 -22.210211 0.743601 -0.324101 0.042520 -3.814556 -3.147390 -0.518836 0.000000 0.000000 0.000000 2.850905 5.525003 -0.022726 4.305045 9.877386 -3.282882 -23.470177 -21.210521 -5.229830 12.228698 -2.163605 0.231569 0.000000 0.000000 0.000000 0.000000 0.000000 0.000000 5.711314 -1.661659 -2.419260 0.825588 3.779927 -3.987837 0.573592 0.146407 -4.675006 -3.305022 2.131454 4.715106 0.000000 0.000000 0.000000 0.000000 0.000000 0.000000 1.448020 -2.844674 -22.231485 -1.182894 0.563837 -0.062268 0.296251 -1.870839 -6.088328 0.000000 0.000000 0.000000 2.920335 14.699400 -19.104322 8.194180 -2.192730 1.777788 3.895217 -44.841753 -3.707381 0.000000 0.000000 0.000000
-39.637455 68.064126 330.328510 0.917442 0.574118 21.856574 -1.065230 -0.191238 -21.862948 -0.000000 0.000000 0.000000 -3.670181 -5.806326 -1.385240 0.000000 0.000000 0.000000 4.153911 8.877134 -0.684534 3.248957 14.455231 -5.146251 -59.976279 12.882636 -28.818787 62.597751 -9.635342 29.733484 0.000000 0.000000 0.000000 0.000000 0.000000 0.000000 7.735537 -3.888412 -2.931983 2.362665 2.739417 -3.615868 0.714864 -0.364998 -3.265328 -0.196979 2.106549 3.153329 0.000000 0.000000 0.000000 0.000000 0.000000 0.000000 2.367304 -4.096159 -21.857559 -1.648651 1.527530 -0.007821 1.269842 -2.780541 -12.293922 0.000000 0.000000 0.000000 2.739885 14.627896 -18.748352 9.982164 4.625647 2.163042 0.475604 -48.285660 -4.739136 0.000000 0.000000 0.000000
-40.168468 67.929770 329.969848 0.597919 0.810618 21.923349 -0.857369 -0.528700 -21.931535 -0.000000 0.000000 0.000000 -4.164535 -7.909285 -2.235949 0.000000 0.000000 0.000000 4.980068 13.163849 -1.563277 1.233854 18.945880 -7.294092 -51.163053 57.158595 -38.634042 91.974570 -14.110003 73.985573 0.000000 0.000000 0.000000 0.000000 0.000000 0.000000 8.601608 -5.837907 -3.369836 4.036785 1.623929 -3.046240 2.166780 -1.965480 -0.964100 0.551655 4.910764 -0.791416 0.000000 0.000000 0.000000 0.000000 0.000000 0.000000 3.021945 -5.451544 -21.889861 -1.820826 2.897198 0.066893 3.072921 -9.296008 -15.374617 0.000000 0.000000 0.000000 2.464505 13.473311 -18.990674 11.241705 12.082110 2.115808 -4.731217 -46.488895 -6.758462 0.000000 0.000000 0.000000
-40.557688 67.833475 329.481765 0.266939 1.153342 22.452406 -0.687262 -0.963930 -22.460874 -0.000000 0.000000 0.000000 -4.497394 -9.747382 -3.034122 0.000000 0.000000 0.000000 5.607557 17.198031 -2.514676 -0.538177 21.900712 -8.932992 -23.858194 66.521972 -54.744330 92.988889 -21.185858 92.677098 0.000000 0.000000 0.000000 0.000000 0.000000 0.000000 9.322364 -7.536951 -3.721598 5.369289 0.417876 -2.199272 4.390556 -3.587359 1.068931 -0.331928 6.862010 -3.287570 0.000000 0.000000 0.000000 0.000000 0.000000 0.000000 3.246073 -6.760889 -22.391230 -1.630640 4.198579 0.112288 3.356542 -12.679506 -15.432044 0.000000 0.000000 0.000000 1.889236 11.937640 -19.813409 12.090692 18.383238 1.741854 -9.614723 -40.205087 -8.081446 0.000000 0.000000 0.000000
-40.782510 67.785286 328.901583 -0.069872 1.529275 23.271736 -0.540122 -1.432443 -23.277556 -0.000000 0.000000 0.000000 -4.669952 -11.099189 -3.654349 0.000000 0.000000 0.000000 6.162432 20.429048 -3.331074 -2.316106 23.647852 -10.188443 -6.967780 62.464887 -56.078988 85.422797 -37.105784 97.672511 0.000000 0.000000 0.000000 0.000000 0.000000 0.000000 9.479645 -8.832453 -3.877439 6.558749 -0.680407 -1.323860 7.061048 -5.173221 2.669792 -1.663578 8.745199 -5.364812 0.000000 0.000000 0.000000 0.000000 0.000000 0.000000 3.072922 -8.002816 -23.209723 -0.732954 5.744412 0.111332 1.706724 -12.476352 -12.669015 0.000000 0.000000 0.000000 2.824767 11.009719 -20.574288 11.255858 21.408230 0.675525 -11.274110 -38.124604 -5.671987 0.000000 0.000000 0.000000
-40.820771 67.770340 328.271698 -0.342309 1.935107 24.191007 -0.889577 -0.638772 -24.209738 -0.034875 -0.370588 -0.044707 -3.561855 -12.901628 -4.277404 0.000000 0.000000 0.000000 7.437341 22.086422 -3.805756 -3.771901 24.643576 -11.079676 -0.335210 54.875202 -46.438935 69.547905 -53.733342 89.800139 0.000000 0.000000 0.000000 0.000000 0.000000 0.000000 10.105782 -10.220293 -3.712453 7.365581 -1.343719 -0.661225 9.518723 -6.305714 2.974649 -3.163912 10.804001 -6.865367 0.000000 0.000000 0.000000 0.000000 0.000000 0.000000 2.515280 -9.104823 -24.167008 -0.102924 7.090703 0.109545 3.528851 -19.041057 -14.741403 0.000000 0.000000 0.000000 2.598993 10.457369 -21.573376 11.704227 21.571850 0.912710 -12.069484 -36.025189 -6.090633 0.000000 0.000000 0.000000
